<svg width="512" height="512" viewBox="0 0 512 512" fill="none" xmlns="http://www.w3.org/2000/svg">
<path d="M342.016 0C481.997 0 512 30.0025 512 169.984V342.016C512 421.655 502.288 465.696 468.138 488.867L207.635 338.467C194.283 330.758 183.039 319.875 174.897 306.783C166.756 293.691 161.969 278.793 160.961 263.409C159.953 248.025 162.753 232.629 169.116 218.586C175.479 204.543 185.207 192.286 197.438 182.9C209.67 173.515 224.027 167.292 239.238 164.78C254.45 162.269 270.046 163.547 284.645 168.503C299.244 173.459 312.395 181.938 322.935 193.19C333.474 204.443 341.074 218.121 345.064 233.013L414.905 214.3C407.838 187.923 394.374 163.695 375.707 143.764C357.04 123.833 333.744 108.814 307.886 100.036C282.027 91.2584 254.403 88.9931 227.46 93.4414C200.517 97.8897 175.087 108.914 153.423 125.538C131.758 142.162 114.527 163.872 103.257 188.746C91.9869 213.62 87.0255 240.889 88.8115 268.138C90.5975 295.387 99.0758 321.775 113.496 344.965C127.916 368.155 147.833 387.43 171.482 401.084L363.143 511.739C356.395 511.916 349.356 512 342.016 512H169.984C30.0025 512 0 481.997 0 342.016V169.984C0 30.0025 30.0025 0 169.984 0H342.016Z" fill="url(#paint0_linear_12_67)"/>
<defs>
<linearGradient id="paint0_linear_12_67" x1="256" y1="0" x2="256" y2="512" gradientUnits="userSpaceOnUse">
<stop stop-color="#A46550"/>
<stop offset="1" stop-color="#3E261E"/>
</linearGradient>
</defs>
</svg>
