<svg width="1887" height="512" viewBox="0 0 1887 512" fill="none" xmlns="http://www.w3.org/2000/svg">
<path d="M789.68 390.2C777.307 390.2 766.747 387.64 758 382.52C749.253 377.187 742.533 369.933 737.84 360.76C733.36 351.587 731.12 340.92 731.12 328.76C731.12 313.827 733.36 299.747 737.84 286.52C742.533 273.08 749.147 261.24 757.68 251C766.213 240.76 776.56 232.76 788.72 227C801.093 221.027 815.28 218.04 831.28 218.04C837.04 218.04 842.693 218.467 848.24 219.32C853.787 220.173 859.12 221.453 864.24 223.16L856.56 240.76C851.867 239.053 847.067 237.773 842.16 236.92C837.253 236.067 832.453 235.64 827.76 235.64C815.813 235.64 805.147 238.093 795.76 243C786.373 247.907 778.373 254.627 771.76 263.16C765.147 271.48 760.133 281.187 756.72 292.28C753.307 303.16 751.6 314.68 751.6 326.84C751.6 340.493 755.013 351.48 761.84 359.8C768.667 368.12 779.12 372.28 793.2 372.28C801.52 372.28 809.627 371.107 817.52 368.76C825.413 366.2 831.6 363.64 836.08 361.08L838 378.36C832.88 381.56 826.053 384.333 817.52 386.68C808.987 389.027 799.707 390.2 789.68 390.2ZM871.625 387L930.185 142.52L950.665 139L929.545 226.04C935.945 223.693 942.345 221.88 948.745 220.6C955.358 219.107 961.758 218.36 967.945 218.36C977.545 218.36 986.185 220.173 993.865 223.8C1001.55 227.427 1007.63 233.08 1012.11 240.76C1016.8 248.227 1019.15 257.933 1019.15 269.88C1019.15 275.427 1018.72 281.187 1017.87 287.16C1017.01 293.133 1015.84 299.107 1014.35 305.08L994.505 387H974.985L992.265 314.04C994.398 306.147 996.105 298.68 997.385 291.64C998.665 284.387 999.305 277.56 999.305 271.16C999.305 262.2 997.598 255.16 994.185 250.04C990.772 244.92 986.292 241.293 980.745 239.16C975.198 237.027 969.012 235.96 962.185 235.96C955.998 235.96 949.705 236.707 943.305 238.2C937.118 239.48 931.145 241.08 925.385 243L891.145 387H871.625ZM1104.18 390.52C1095.43 390.52 1087.22 388.493 1079.54 384.44C1071.86 380.173 1065.57 373.56 1060.66 364.6C1055.75 355.64 1053.3 343.907 1053.3 329.4C1053.3 312.973 1055.86 298.04 1060.98 284.6C1066.31 270.947 1073.89 259.213 1083.7 249.4C1093.51 239.373 1105.03 231.693 1118.26 226.36C1131.7 220.813 1146.53 218.04 1162.74 218.04C1166.79 218.04 1171.06 218.253 1175.54 218.68C1180.02 219.107 1184.39 219.747 1188.66 220.6C1192.93 221.453 1197.09 222.733 1201.14 224.44L1176.5 324.6C1174.79 331.64 1173.62 338.467 1172.98 345.08C1172.34 351.48 1172.45 357.987 1173.3 364.6C1174.37 371.213 1176.39 378.253 1179.38 385.72L1159.86 388.6C1158.58 385.827 1157.41 382.84 1156.34 379.64C1155.49 376.227 1154.74 372.813 1154.1 369.4C1145.99 377.08 1137.78 382.52 1129.46 385.72C1121.14 388.92 1112.71 390.52 1104.18 390.52ZM1106.74 372.6C1115.06 372.6 1123.06 370.787 1130.74 367.16C1138.42 363.32 1145.89 357.56 1153.14 349.88C1153.35 342.84 1154.31 335.587 1156.02 328.12C1157.73 320.653 1159.33 314.04 1160.82 308.28L1178.1 238.2C1174.26 237.133 1170.63 236.493 1167.22 236.28C1164.02 235.853 1160.71 235.64 1157.3 235.64C1143.86 235.64 1131.91 238.2 1121.46 243.32C1111.01 248.44 1102.15 255.373 1094.9 264.12C1087.86 272.867 1082.53 282.68 1078.9 293.56C1075.27 304.227 1073.46 315.32 1073.46 326.84C1073.46 338.147 1074.95 347.213 1077.94 354.04C1081.14 360.867 1085.19 365.667 1090.1 368.44C1095.22 371.213 1100.77 372.6 1106.74 372.6ZM1202.85 446.2L1255.33 227.64C1261.3 225.507 1267.28 223.8 1273.25 222.52C1279.22 221.027 1285.09 219.96 1290.85 219.32C1296.82 218.467 1302.48 218.04 1307.81 218.04C1320.82 218.04 1331.6 220.387 1340.13 225.08C1348.66 229.773 1354.96 236.6 1359.01 245.56C1363.28 254.52 1365.41 265.4 1365.41 278.2C1365.41 292.493 1363.17 306.253 1358.69 319.48C1354.21 332.707 1347.49 344.653 1338.53 355.32C1329.78 365.987 1318.9 374.413 1305.89 380.6C1292.88 386.573 1277.94 389.56 1261.09 389.56C1256.61 389.56 1252.34 389.24 1248.29 388.6C1244.24 387.96 1240.29 387.213 1236.45 386.36L1222.37 446.2H1202.85ZM1262.69 371.96C1276.56 371.96 1288.61 369.293 1298.85 363.96C1309.3 358.627 1317.94 351.587 1324.77 342.84C1331.81 334.093 1337.04 324.387 1340.45 313.72C1343.86 303.053 1345.57 292.28 1345.57 281.4C1345.57 265.187 1342.05 253.347 1335.01 245.88C1327.97 238.413 1317.41 234.68 1303.33 234.68C1298.21 234.68 1292.98 235.107 1287.65 235.96C1282.53 236.813 1277.3 238.093 1271.97 239.8L1241.25 368.76C1244.66 369.827 1248.08 370.68 1251.49 371.32C1255.12 371.747 1258.85 371.96 1262.69 371.96ZM1370.66 446.2L1423.14 227.64C1429.12 225.507 1435.09 223.8 1441.06 222.52C1447.04 221.027 1452.9 219.96 1458.66 219.32C1464.64 218.467 1470.29 218.04 1475.62 218.04C1488.64 218.04 1499.41 220.387 1507.94 225.08C1516.48 229.773 1522.77 236.6 1526.82 245.56C1531.09 254.52 1533.22 265.4 1533.22 278.2C1533.22 292.493 1530.98 306.253 1526.5 319.48C1522.02 332.707 1515.3 344.653 1506.34 355.32C1497.6 365.987 1486.72 374.413 1473.7 380.6C1460.69 386.573 1445.76 389.56 1428.9 389.56C1424.42 389.56 1420.16 389.24 1416.1 388.6C1412.05 387.96 1408.1 387.213 1404.26 386.36L1390.18 446.2H1370.66ZM1430.5 371.96C1444.37 371.96 1456.42 369.293 1466.66 363.96C1477.12 358.627 1485.76 351.587 1492.58 342.84C1499.62 334.093 1504.85 324.387 1508.26 313.72C1511.68 303.053 1513.38 292.28 1513.38 281.4C1513.38 265.187 1509.86 253.347 1502.82 245.88C1495.78 238.413 1485.22 234.68 1471.14 234.68C1466.02 234.68 1460.8 235.107 1455.46 235.96C1450.34 236.813 1445.12 238.093 1439.78 239.8L1409.06 368.76C1412.48 369.827 1415.89 370.68 1419.3 371.32C1422.93 371.747 1426.66 371.96 1430.5 371.96ZM1601.84 389.56C1590.74 388.067 1582.1 385.08 1575.92 380.6C1569.94 376.12 1565.89 370.467 1563.76 363.64C1561.62 356.813 1560.88 349.027 1561.52 340.28C1562.16 331.32 1563.65 321.72 1565.99 311.48L1606.64 142.52L1627.11 139L1587.11 304.44C1585.2 312.973 1583.49 320.973 1582 328.44C1580.5 335.907 1579.97 342.627 1580.4 348.6C1580.82 354.573 1582.96 359.693 1586.8 363.96C1590.85 368.013 1597.25 371 1606 372.92L1601.84 389.56ZM1640.38 387L1680.38 221.88H1699.58L1659.9 387H1640.38ZM1701.82 179.96C1698.19 179.96 1695.2 178.893 1692.86 176.76C1690.72 174.413 1689.66 171.32 1689.66 167.48C1689.66 164.28 1690.4 161.4 1691.9 158.84C1693.39 156.28 1695.31 154.36 1697.66 153.08C1700 151.587 1702.46 150.84 1705.02 150.84C1708.64 150.84 1711.63 152.013 1713.98 154.36C1716.32 156.493 1717.5 159.587 1717.5 163.64C1717.5 166.84 1716.64 169.72 1714.94 172.28C1713.44 174.627 1711.52 176.547 1709.18 178.04C1707.04 179.32 1704.59 179.96 1701.82 179.96ZM1717.88 387L1755.96 227.32C1764.28 224.973 1773.13 222.947 1782.52 221.24C1791.9 219.533 1800.97 218.68 1809.72 218.68C1827.64 218.68 1840.97 222.413 1849.72 229.88C1858.46 237.133 1863.48 247.267 1864.76 260.28C1866.25 273.293 1864.86 288.227 1860.6 305.08L1841.08 387H1821.56L1838.84 314.04C1841.61 302.947 1843.64 292.707 1844.92 283.32C1846.2 273.72 1845.98 265.507 1844.28 258.68C1842.78 251.64 1839.05 246.2 1833.08 242.36C1827.32 238.307 1818.68 236.28 1807.16 236.28C1801.4 236.28 1795.53 236.707 1789.56 237.56C1783.8 238.413 1778.14 239.587 1772.6 241.08L1737.4 387H1717.88Z" fill="#EFEFEF"/>
<path d="M342.016 0C481.997 0 512 30.0025 512 169.984V342.016C512 421.655 502.288 465.696 468.138 488.867L207.635 338.467C194.283 330.758 183.039 319.875 174.897 306.783C166.756 293.691 161.969 278.793 160.961 263.409C159.953 248.025 162.753 232.629 169.116 218.586C175.479 204.543 185.207 192.286 197.438 182.9C209.67 173.515 224.027 167.292 239.238 164.78C254.45 162.269 270.046 163.547 284.645 168.503C299.244 173.459 312.395 181.938 322.935 193.19C333.474 204.443 341.074 218.121 345.064 233.013L414.905 214.3C407.838 187.923 394.374 163.695 375.707 143.764C357.04 123.833 333.744 108.814 307.886 100.036C282.027 91.2584 254.403 88.9931 227.46 93.4414C200.517 97.8897 175.087 108.914 153.423 125.538C131.758 142.162 114.527 163.872 103.257 188.746C91.9869 213.62 87.0255 240.889 88.8115 268.138C90.5975 295.387 99.0758 321.775 113.496 344.965C127.916 368.155 147.833 387.43 171.482 401.084L363.143 511.739C356.395 511.916 349.356 512 342.016 512H169.984C30.0025 512 0 481.997 0 342.016V169.984C0 30.0025 30.0025 0 169.984 0H342.016Z" fill="url(#paint0_linear_26_15)"/>
<defs>
<linearGradient id="paint0_linear_26_15" x1="256" y1="0" x2="256" y2="512" gradientUnits="userSpaceOnUse">
<stop stop-color="#A46550"/>
<stop offset="1" stop-color="#3E261E"/>
</linearGradient>
</defs>
</svg>
